<!-- SPDX-License-Identifier: CC0-1.0 -->
<svg xmlns="http://www.w3.org/2000/svg" width="105mm" height="91mm" viewBox="0 0 105 91">
  <desc property="dc:creator">Jakub Jirutka</desc>
  <g stroke="#0066cc" stroke-width="9.45">
    <path fill="#0066cc" stroke-width="3.461346" d="M30.43 3.88c-12.52.04-25.8 11.58-26.2 26.8-.07 4.08 1.03 8.28 3.15 12.6h90.24c2.12-4.32 3.22-8.52 3.15-12.6-.4-15.22-13.68-26.76-26.2-26.8-.4 0-.8.01-1.2.04-16.38 1.26-20.95 13.85-20.95 13.85s-4.4-12.6-20.79-13.85c-.4-.03-.8-.04-1.2-.04z"/>
    <path fill="#ffcc00" stroke-width="3.461346" d="M7.38 43.28C13.93 56.7 30.2 71.27 51.16 86.75c.86.59 1.7.6 2.68 0C74.8 71.27 91.07 56.69 97.62 43.28z"/>
  </g>
</svg>
