<?xml version="1.0" encoding="UTF-8" standalone="no"?>
<!-- Created with Inkscape (http://www.inkscape.org/) -->

<svg
   xmlns:dc="http://purl.org/dc/elements/1.1/"
   xmlns:cc="http://creativecommons.org/ns#"
   xmlns:rdf="http://www.w3.org/1999/02/22-rdf-syntax-ns#"
   xmlns:svg="http://www.w3.org/2000/svg"
   xmlns="http://www.w3.org/2000/svg"
   xmlns:sodipodi="http://sodipodi.sourceforge.net/DTD/sodipodi-0.dtd"
   xmlns:inkscape="http://www.inkscape.org/namespaces/inkscape"
   width="105mm"
   height="91mm"
   viewBox="0 0 105 91"
   version="1.1"
   id="svg832"
   inkscape:version="0.92.2 5c3e80d, 2017-08-06"
   sodipodi:docname="ukranian-hearth.svg">
  <defs
     id="defs826" />
  <sodipodi:namedview
     id="base"
     pagecolor="#ffffff"
     bordercolor="#666666"
     borderopacity="1.0"
     inkscape:pageopacity="0.0"
     inkscape:pageshadow="2"
     inkscape:zoom="2.3259946"
     inkscape:cx="227.63043"
     inkscape:cy="188.86428"
     inkscape:document-units="mm"
     inkscape:current-layer="layer1"
     showgrid="false"
     width="100mm"
     inkscape:window-width="2560"
     inkscape:window-height="1389"
     inkscape:window-x="0"
     inkscape:window-y="25"
     inkscape:window-maximized="1" />
  <metadata
     id="metadata829">
    <rdf:RDF>
      <cc:Work
         rdf:about="">
        <dc:format>image/svg+xml</dc:format>
        <dc:type
           rdf:resource="http://purl.org/dc/dcmitype/StillImage" />
        <dc:title></dc:title>
        <dc:creator>
          <cc:Agent>
            <dc:title>Jakub Jirutka</dc:title>
          </cc:Agent>
        </dc:creator>
        <dc:date>2022-02-28</dc:date>
        <dc:rights>
          <cc:Agent>
            <dc:title>CC0-1.0</dc:title>
          </cc:Agent>
        </dc:rights>
      </cc:Work>
    </rdf:RDF>
  </metadata>
  <g
     inkscape:label="Layer 1"
     inkscape:groupmode="layer"
     id="layer1"
     transform="translate(0,-206)">
    <g
       id="g1454"
       transform="matrix(1.3843605,0,0,1.3843605,-191.18694,62.685027)">
      <path
         transform="matrix(0.26458333,0,0,0.26458333,0,87)"
         id="path1409"
         d="m 605.03711,73.060547 c -34.18139,0.09831 -70.42417,31.588453 -71.50586,73.175783 -0.2097,11.11421 2.81119,22.58732 8.58398,34.39258 h 246.37891 c 5.77279,-11.80526 8.79369,-23.27837 8.58398,-34.39258 -1.08168,-41.58733 -37.32446,-73.077471 -71.50585,-73.175783 -1.10263,-0.0032 -2.2037,0.02501 -3.30079,0.08789 -44.71203,3.439406 -57.18359,37.833983 -57.18359,37.833983 0,0 -12.03796,-34.394577 -56.75,-37.833983 -1.09708,-0.06288 -2.19816,-0.09106 -3.30078,-0.08789 z"
         style="fill:#005dfa;fill-opacity:1;stroke:#005cfa;stroke-width:9.44881916;stroke-linecap:butt;stroke-linejoin:miter;stroke-miterlimit:4;stroke-dasharray:none;stroke-opacity:1"
         inkscape:connector-curvature="0" />
      <path
         id="path1438"
         transform="matrix(0.26458333,0,0,0.26458333,0,87)"
         d="m 542.11523,180.62891 c 17.89755,36.60015 62.32047,76.40073 119.53321,118.66015 2.33885,1.61137 4.6491,1.65734 7.3125,0 57.21274,-42.25942 101.63566,-82.06 119.5332,-118.66015 z"
         style="fill:#fffa00;fill-opacity:1;stroke:#005cfa;stroke-width:9.44881916;stroke-linecap:butt;stroke-linejoin:miter;stroke-miterlimit:4;stroke-dasharray:none;stroke-opacity:1"
         inkscape:connector-curvature="0" />
    </g>
  </g>
</svg>
