<!-- SPDX-License-Identifier: CC0-1.0 -->
<svg xmlns="http://www.w3.org/2000/svg" width="290mm" height="193mm" viewBox="0 0 290 193">
  <desc property="dc:creator">Jakub Jirutka</desc>
  <g transform="translate(0 -104)">
    <rect width="290" height="96.59" y="104" fill="#005dfa"/>
    <rect width="290" height="96.59" y="200.41" fill="#fffa00"/>
    <g fill="#fffa00" stroke-width=".81" aria-label="Слава Україні!" font-family="Pattaya" font-size="29.99" font-weight="400" letter-spacing="0" style="line-height:1.25;-inkscape-font-specification:Pattaya" text-anchor="middle" word-spacing="0">
      <path d="M59.2 168.32q-1.7 0-2.91-.4-1.22-.4-2.02-1.27-.82-.87-1.23-2.28-.4-1.42-.4-3.43 0-2.27.53-4.73.61-2.85 1.75-5.1 1.34-2.63 3.24-4.1 2.17-1.66 4.95-1.66 2.24 0 3.56.94 1.45 1.02 1.45 3.07 0 1.29-.47 1.98-.56.79-1.64.79-.46 0-.9-.16-.42-.16-.8-.62.26-.13.51-.4.25-.3.44-.68.43-.85.43-1.68 0-.8-.41-1.28-.49-.55-1.42-.55-.8 0-1.6.6-.78.58-1.5 1.67-.68 1.03-1.27 2.43-.58 1.39-1 2.95-.4 1.58-.64 3.22-.23 1.64-.23 3.14 0 1.11.16 1.94.18.84.56 1.43.83 1.3 2.88 1.3 1.76 0 3.27-.78 1.5-.79 2.57-2.22l.7.3q-.58 1.44-1.6 2.52-.99 1.07-2.25 1.77-1.15.65-2.38.97-1.23.32-2.33.32z" style="-inkscape-font-specification:Pattaya;text-align:center"/>
      <path d="M69.16 168.02q-1.64 0-2.52-1.07-.38-.46-.57-1.06-.2-.61-.2-1.26 0-1.07.49-1.72.5-.68 1.36-.68.7 0 1.13.44.44.43.44 1.13 0 .64-.3 1.02-.3.37-.74.37-.1 0-.16-.02.03.41.25.63.29.33.92.33.7 0 1.16-.46.45-.45.77-1.32.3-.87.51-1.87.15-.83.36-1.71l.1-.49q.47-2.3 1.04-3.76.58-1.46 1.32-2.3.65-.77 1.47-1.07.84-.3 1.92-.3h4.42l-1.6 7.43-.52 2.32q-.19.85-.19 1.26 0 1.26 1.2 1.26.44 0 .78-.15.33-.16.63-.5.26-.3.5-.77.27-.47.6-1.23H85q-1.89 5.55-5.58 5.55-1.71 0-2.68-.97-.42-.43-.64-1-.22-.58-.22-1.21 0-1.26.66-4.07l1.31-5.95q-.79 0-1.34.33-.56.32-.98 1-.41.66-.75 1.72-.34 1.05-.7 2.7l-.06.3q-.46 2.12-.78 3.27-.3 1.14-.75 1.94-.54.98-1.34 1.47-.8.47-2 .47z" style="-inkscape-font-specification:Pattaya;text-align:center"/>
      <path d="M87.36 168.02q-1.72 0-2.77-1.07-1.23-1.26-1.23-3.75 0-1.06.22-2.23.2-1.17.61-2.31.94-2.58 2.57-4.16 1.87-1.8 4.31-1.8 1.22 0 1.82.42.62.41.62 1.1v.22l.32-1.6h4.32l-2.16 10.2q-.13.44-.13.96 0 1.3 1.23 1.3.82 0 1.5-.84.57-.7.93-2h1.26q-.8 2.29-1.95 3.62-.96 1.1-2.18 1.58-.89.36-1.89.36-1.27 0-2.03-.7-.75-.7-.9-2.06-.86 1.2-1.8 1.88-1.2.88-2.67.88zm1.94-2.9q.34 0 .7-.18.39-.18.74-.5.79-.76 1.05-1.97l1.44-6.77q0-.14-.08-.34-.05-.2-.17-.38-.35-.42-.98-.42-.6 0-1.17.4-.56.39-1.06 1.1-.88 1.27-1.45 3.32-.26.9-.4 1.8-.12.88-.12 1.6 0 1.49.55 2.01.2.2.43.27.23.06.52.06z" style="-inkscape-font-specification:Pattaya;text-align:center"/>
      <path d="M104.06 167.96q-2.46 0-3.78-1.53-1.2-1.39-1.2-3.86 0-.8.2-1.98.17-1.18.5-2.55.74-2.92 1.95-5.72 1.35-3.08 2.96-4.92 1.82-2.08 3.7-2.08 1.56 0 2.4.94.89 1.02.89 3.18 0 1.7-.84 3.85-.63 1.62-1.61 3.33.63.31 1.13.9 1.3 0 2.96-.62 1.47-.52 2.53-1.27l.28.82q-.84.88-2.16 1.52-1.31.63-2.92.9.16.57.16 1.5 0 1.5-.49 2.86-.48 1.36-1.4 2.41-.95 1.1-2.3 1.72-1.33.6-2.96.6zm1.32-2.7q.7 0 1.29-.36.58-.37 1-1.01.39-.6.6-1.34.2-.74.2-1.49 0-1.11-.26-1.64l-.5.15q-.2.03-.59.03-.72 0-1.14-.4-.41-.4-.41-1.08 0-.9.6-1.35.48-.37 1.5-.44.8-1.45 1.44-3.41.65-2 .65-3.62 0-.9-.24-1.27-.22-.37-.74-.37-.47 0-.96.5-.48.5-.95 1.4-.85 1.65-1.67 4.4-.7 2.33-1.2 5-.45 2.4-.45 3.7 0 1.21.42 1.87.46.73 1.41.73z" style="-inkscape-font-specification:Pattaya;text-align:center"/>
      <path d="M116.58 168.02q-1.71 0-2.77-1.07-1.23-1.26-1.23-3.75 0-1.06.22-2.23.2-1.17.62-2.31.94-2.58 2.56-4.16 1.87-1.8 4.32-1.8 1.21 0 1.82.42.61.41.61 1.1v.22l.32-1.6h4.32l-2.15 10.2q-.13.44-.13.96 0 1.3 1.23 1.3.82 0 1.5-.84.56-.7.93-2H130q-.8 2.29-1.95 3.62-.97 1.1-2.18 1.58-.9.36-1.9.36-1.26 0-2.03-.7-.74-.7-.9-2.06-.85 1.2-1.79 1.88-1.2.88-2.68.88zm1.95-2.9q.33 0 .7-.18.38-.18.73-.5.8-.76 1.06-1.97l1.43-6.77q0-.14-.07-.34-.06-.2-.18-.38-.35-.42-.98-.42-.6 0-1.17.4-.56.39-1.05 1.1-.88 1.27-1.45 3.32-.27.9-.4 1.8-.13.88-.13 1.6 0 1.49.56 2.01.19.2.42.27.24.06.53.06z" style="-inkscape-font-specification:Pattaya;text-align:center"/>
      <path d="M144.05 167.99q-1.28 0-1.98-.63-.66-.6-.66-1.56 0-1 .53-1.56.54-.57 1.54-.57.77 0 1.26.47.48.45.6 1.3.5-.2.95-.8.47-.6.85-1.41l-4.3-15.87q-2.13.8-3.3 2.5-1.16 1.7-1.16 4.16 0 .96.22 1.5.06.18.15.33.06.1.06.2-1.61 0-2.39-.64-.82-.69-.82-2.27 0-.97.41-1.93.42-.97 1.2-1.86.75-.87 1.76-1.6 1-.73 2.2-1.27 2.51-1.13 4.94-1.13.68 0 1.2.06l2.62 11.24 4.73-11.15h1.98l-7.5 17.73q-.4.92-.82 1.67-.4.73-.92 1.37-1.45 1.72-3.35 1.72z" style="-inkscape-font-specification:Pattaya;text-align:center"/>
      <path d="M165.38 168.02q-1.79 0-2.7-.88-.92-.88-.92-2.45 0-.51.18-1.54.03-.23.06-.32.03-.3.06-.4.06-.29.06-.6 0-1.43-1.15-1.43-.38 0-.82.27l-.48.35-.61.5-1.32 6.32h-4.32l3.2-15h4.32l-1.28 5.95q.96-.97 1.87-1.95l.22-.25q1.74-1.87 2.37-2.5 1.04-1.04 1.96-1.35.52-.16 1.07-.16 1.01 0 1.54.56.53.54.53 1.42 0 .92-.5 1.43-.48.52-1.4.52-.83 0-1.27-.52-.4-.43-.36-1.02-.47.28-.9.66-.4.36-.9.88l-.3.32q-.2.2-.55.61-.37.43-.9.96.52-.12 1.26-.12 1.56 0 2.24.72.62.63.62 2.06 0 .48-.18 1.42l-.13.78q-.06.4-.06.74 0 1.12 1.2 1.12.46 0 .78-.15.34-.16.62-.5.26-.3.5-.77.26-.47.6-1.23h1.25q-1.89 5.55-5.46 5.55z" style="-inkscape-font-specification:Pattaya;text-align:center"/>
      <path d="M171.9 151.73h4.32l-.49 2.26q1.53-1.29 3.5-1.29 1.69 0 2.6 1.03 1.06 1.2 1.06 3.7 0 2.42-.61 4.54-.78 2.7-2.26 4.2-1.81 1.85-4.5 1.85-1.05 0-1.72-.33-.51-.23-.83-.74l-1.56 7.3-4.52 1.09zm2.7 13.68q1.44 0 2.48-1.48.82-1.16 1.32-3.25.4-1.68.4-3.34 0-1.48-.55-2.1-.35-.39-.97-.39-.54 0-1.1.38-.55.38-.96 1.1l-1.77 8.4q.1.28.38.49.3.19.76.19z" style="-inkscape-font-specification:Pattaya;text-align:center"/>
      <path d="M187.68 168.02q-1.71 0-2.77-1.07-1.23-1.26-1.23-3.75 0-1.06.22-2.23.2-1.17.62-2.31.93-2.58 2.56-4.16 1.87-1.8 4.32-1.8 1.21 0 1.81.42.62.41.62 1.1v.22l.32-1.6h4.32l-2.15 10.2q-.13.44-.13.96 0 1.3 1.23 1.3.82 0 1.5-.84.56-.7.93-2h1.26q-.8 2.29-1.95 3.62-.97 1.1-2.18 1.58-.9.36-1.9.36-1.26 0-2.03-.7-.74-.7-.9-2.06-.85 1.2-1.79 1.88-1.2.88-2.68.88zm1.95-2.9q.33 0 .7-.18.38-.18.73-.5.8-.76 1.06-1.97l1.43-6.77q0-.14-.07-.34-.06-.2-.18-.38-.35-.42-.98-.42-.6 0-1.17.4-.56.39-1.05 1.1-.88 1.27-1.45 3.32-.27.9-.4 1.8-.13.88-.13 1.6 0 1.49.56 2.01.19.2.42.27.23.06.53.06z" style="-inkscape-font-specification:Pattaya;text-align:center"/>
      <path d="M202.15 150.65q-.78 0-1.3-.53-.53-.52-.53-1.29 0-.35.13-.68.14-.34.4-.6.5-.55 1.3-.55.71 0 1.28.55.25.25.4.58.15.34.15.7 0 .78-.55 1.3-.57.52-1.28.52zm5.38 0q-.74 0-1.3-.53-.53-.5-.53-1.29 0-.36.14-.7.14-.33.4-.58.53-.55 1.3-.55.36 0 .7.15.33.15.58.4.25.25.4.58.14.34.14.7 0 .78-.54 1.3-.26.24-.6.39-.33.13-.69.13zm-4.72 17.37q-1.44 0-2.27-.85-.94-.94-.94-2.74 0-.85.23-1.96l2.04-9.62h4.32l-2.15 10.19q-.12.38-.12.96 0 .62.28.87.29.25.93.25.44 0 .85-.2.43-.2.78-.55.72-.72 1.08-1.9h1.26q-.8 2.27-2.02 3.61-1.02 1.1-2.31 1.58-.94.36-1.96.36z" style="-inkscape-font-specification:Pattaya;text-align:center"/>
      <path d="M218.74 168.02q-1.73 0-2.67-.97-.42-.43-.64-1-.22-.58-.22-1.21 0-.56.16-1.51.17-.95.52-2.7h-3.32l-1.54 7.21h-4.32l3.18-15h4.32l-1.29 6.01h3.36l1.36-6h4l-1.57 7.43-.53 2.32q-.2.9-.2 1.26 0 1.26 1.2 1.26.45 0 .79-.15.33-.16.63-.5.26-.3.5-.76.24-.45.6-1.24h1.25q-1.88 5.55-5.57 5.55z" style="-inkscape-font-specification:Pattaya;text-align:center"/>
      <path d="M228.1 151.22q-.5 0-.93-.17-.44-.2-.76-.52-.32-.3-.51-.74-.18-.44-.18-.93 0-.48.18-.92.19-.44.5-.77.33-.34.77-.52.44-.19.92-.19.48 0 .92.2.44.17.78.5.34.34.51.78.2.44.2.92 0 .49-.2.93-.17.44-.51.74-.34.33-.78.52-.44.17-.92.17zm-2.04 16.8q-1.44 0-2.27-.85-.94-.94-.94-2.74 0-.85.23-1.96l2.04-9.62h4.32l-2.15 10.19q-.12.38-.12.96 0 .62.28.87.29.25.93.25.44 0 .85-.2.43-.2.78-.55.72-.72 1.08-1.9h1.26q-.8 2.27-2.02 3.61-1.02 1.1-2.31 1.58-.94.36-1.96.36z" style="-inkscape-font-specification:Pattaya;text-align:center"/>
      <path d="m236.33 145.92 4.62-.63-4.35 15.62h-2.55zm-1.85 22.1q-.49 0-.93-.18-.42-.2-.76-.53-.34-.32-.53-.76-.19-.45-.19-.94 0-.48.2-.9.18-.44.52-.77.72-.68 1.69-.68.48 0 .92.19.44.17.76.5.32.32.5.76.19.42.19.9 0 .49-.2.94-.17.44-.5.76-.31.32-.75.51-.44.2-.92.2z" style="-inkscape-font-specification:Pattaya;text-align:center"/>
    </g>
    <g fill="#005dfa" stroke-width=".81" aria-label="Sláva Ukrajině!" font-family="Pattaya" font-size="29.99" font-weight="400" letter-spacing="0" style="line-height:1.25;-inkscape-font-specification:Pattaya" text-anchor="middle" word-spacing="0">
      <path d="M58.2 254.2q-1.44 0-2.6-.38-1.15-.36-1.99-1.07-.85-.7-1.3-1.66-.44-.97-.44-2.14 0-.98.3-1.85.33-.88.9-1.52.57-.64 1.33-1 .77-.36 1.62-.36 1.05 0 1.77.53.71.52.89 1.44-1.57 0-2.49.84-.44.4-.69.97-.23.57-.23 1.25 0 1.32.76 2.1.78.76 2.08.76.78 0 1.45-.28.67-.3 1.17-.79.5-.5.76-1.18.28-.7.28-1.5 0-1.46-1-3.04-.4-.62-.87-1.2-.47-.6-1.32-1.59-.76-.87-1.28-1.52-.5-.64-.92-1.32-1-1.62-1-3.19 0-1.17.5-2.16.5-1.02 1.42-1.76.93-.75 2.16-1.16 1.23-.4 2.65-.4 2.41 0 3.88 1.13.7.56 1.07 1.34.38.77.38 1.72 0 1.25-.63 2.04-.3.38-.74.58-.42.2-.9.2-1.13 0-1.83-.93.57-.4.89-1.08.34-.69.34-1.47 0-.96-.57-1.52-.58-.57-1.57-.57-.6 0-1.11.22-.5.22-.85.63-.37.41-.57.97-.2.55-.2 1.21 0 .94.44 1.8.44.87 1.26 1.8.74.87 1.58 1.72 1.98 2.05 2.8 4 .48 1.15.48 2.54 0 1.47-.6 2.72-.6 1.25-1.7 2.17-1.12.94-2.6 1.45t-3.16.51z" style="-inkscape-font-specification:Pattaya;text-align:center"/>
      <path d="M70.94 253.84q-1.44 0-2.27-.85-.94-.94-.94-2.74 0-.85.23-1.96l3.2-15.02 4.45-.6-3.44 16.19q-.12.38-.12.97 0 .61.28.86.29.25.93.25.44 0 .85-.2.43-.2.78-.55.72-.72 1.08-1.9h1.26q-.8 2.27-2.02 3.62-1.02 1.1-2.31 1.58-.94.35-1.96.35z" style="-inkscape-font-specification:Pattaya;text-align:center"/>
      <path d="M86.06 231.17h3.15l-3.63 5.67h-2.24zm-6.47 22.67q-1.71 0-2.77-1.07-1.23-1.26-1.23-3.75 0-1.05.22-2.22.2-1.18.62-2.32.93-2.58 2.56-4.16 1.87-1.8 4.32-1.8 1.21 0 1.81.43.62.4.62 1.1v.21l.32-1.6h4.32l-2.15 10.2q-.13.44-.13.97 0 1.28 1.23 1.28.82 0 1.49-.83.57-.7.94-2H93q-.8 2.3-1.94 3.63-.97 1.1-2.18 1.58-.9.35-1.9.35-1.27 0-2.03-.69-.74-.7-.9-2.06-.86 1.2-1.8 1.87-1.2.88-2.67.88zm1.95-2.9q.33 0 .7-.18.38-.17.73-.5.8-.76 1.05-1.97l1.44-6.77q0-.14-.07-.33-.06-.2-.18-.38-.35-.43-.98-.43-.6 0-1.17.4-.56.4-1.06 1.1-.87 1.27-1.45 3.32-.26.9-.4 1.8-.12.88-.12 1.6 0 1.49.55 2.02.2.2.43.26.23.06.53.06z" style="-inkscape-font-specification:Pattaya;text-align:center"/>
      <path d="M95.15 253.84q-1.74 0-2.7-.88-.97-.9-.97-2.65 0-.73.14-1.45l2.16-10.2h4.32l-2.16 10.2q-.16.72-.16 1.08 0 .47.25.74.25.26.78.26.7 0 1.37-.5.68-.5 1.28-1.38.55-.8 1.02-1.87.49-1.07.82-2.21.32-1.11.5-2.17.19-1.07.19-1.89-.06.14-.42.22-.24.08-.53.08-.51 0-.8-.5-.29-.43-.29-1.03 0-.73.47-1.17.47-.45 1.4-.45.99 0 1.47.8.41.68.41 1.8 0 1.25-.22 2.7-.2 1.45-.63 2.85-1.02 3.34-2.76 5.26-2.11 2.36-4.94 2.36z" style="-inkscape-font-specification:Pattaya;text-align:center"/>
      <path d="M107.76 253.84q-1.71 0-2.77-1.07-1.23-1.26-1.23-3.75 0-1.05.22-2.22.2-1.18.62-2.32.93-2.58 2.56-4.16 1.87-1.8 4.32-1.8 1.21 0 1.81.43.62.4.62 1.1v.21l.32-1.6h4.32l-2.15 10.2q-.13.44-.13.97 0 1.28 1.23 1.28.82 0 1.49-.83.57-.7.94-2h1.26q-.81 2.3-1.95 3.63-.97 1.1-2.18 1.58-.9.35-1.9.35-1.27 0-2.03-.69-.74-.7-.9-2.06-.85 1.2-1.8 1.87-1.2.88-2.67.88zm1.95-2.9q.33 0 .7-.18.38-.17.73-.5.8-.76 1.06-1.97l1.43-6.77q0-.14-.07-.33-.06-.2-.18-.38-.35-.43-.98-.43-.6 0-1.17.4-.56.4-1.06 1.1-.87 1.27-1.44 3.32-.27.9-.4 1.8-.13.88-.13 1.6 0 1.49.55 2.02.2.2.43.26.23.06.53.06z" style="-inkscape-font-specification:Pattaya;text-align:center"/>
      <path d="M137.07 253.87q-2.99 0-4.5-1.45-1.5-1.45-1.5-4.3 0-1.43.42-3.16l3.06-12.16q-1.29.33-2.31.98-1.03.64-1.74 1.5-.7.83-1.06 1.8-.35.97-.35 2 0 1.5.78 2.87-1.72 0-2.67-.84-.93-.83-.93-2.37 0-.98.4-1.93.43-.97 1.2-1.85.74-.84 1.8-1.56 1.05-.72 2.32-1.25 2.67-1.1 5.55-1.1 1.01 0 1.68.15l-3.66 13.85q-.5 1.88-.5 3.24 0 2.85 2.33 2.85 3.31 0 4.66-6.18l2.99-13.85h4.23l-2.93 13.85q-.94 4.4-3.28 6.65-2.34 2.26-5.99 2.26z" style="-inkscape-font-specification:Pattaya;text-align:center"/>
      <path d="M159.18 253.84q-1.86 0-2.83-.88-.95-.88-.95-2.53 0-.72.18-1.57l.25-1.17q.11-.46.11-1.1 0-.7-.24-1.07-.25-.38-.84-.38-.48 0-1 .28-.54.28-1.21.83l-1.57 7.41h-4.32l4.35-20.4 4.44-.6-2.24 10.56 5.78-4.55h2.97l-6 4.17q.51-.13 1-.13.82 0 1.43.28.63.26 1.06.76.4.47.6 1.11.2.63.2 1.36 0 .7-.12 1.15l-.33 1.49q-.15.48-.15.97 0 .5.27.82.26.29.9.29.9 0 1.51-.73.47-.56 1.01-1.92h1.26q-1.1 3.32-2.88 4.65-1.18.9-2.64.9z" style="-inkscape-font-specification:Pattaya;text-align:center"/>
      <path d="M165.46 238.67h4.32l-.38 1.86q1.03-.9 1.67-1.29 1-.57 1.95-.57.96 0 1.55.69.26.3.4.71.13.4.13.85 0 .41-.14.8-.13.38-.4.68-.28.32-.7.52-.42.19-.93.19-.4 0-.63-.14-.23-.13-.37-.38-.11-.25-.16-.48-.13-.63-.26-.83-.1-.15-.32-.15-.63 0-1.07.26-.44.27-1.11.88l-2.4 11.4h-4.33z" style="-inkscape-font-specification:Pattaya;text-align:center"/>
      <path d="M178.33 253.84q-1.71 0-2.77-1.07-1.23-1.26-1.23-3.75 0-1.05.22-2.22.2-1.18.62-2.32.94-2.58 2.56-4.16 1.88-1.8 4.32-1.8 1.22 0 1.82.43.61.4.61 1.1v.21l.32-1.6h4.32l-2.15 10.2q-.13.44-.13.97 0 1.28 1.23 1.28.82 0 1.5-.83.56-.7.93-2h1.26q-.8 2.3-1.95 3.63-.97 1.1-2.18 1.58-.9.35-1.89.35-1.27 0-2.03-.69-.75-.7-.91-2.06-.85 1.2-1.79 1.87-1.2.88-2.68.88zm1.95-2.9q.34 0 .7-.18.38-.17.73-.5.8-.76 1.06-1.97l1.43-6.77q0-.14-.07-.33-.06-.2-.18-.38-.35-.43-.98-.43-.6 0-1.17.4-.55.4-1.05 1.1-.88 1.27-1.45 3.32-.27.9-.4 1.8-.13.88-.13 1.6 0 1.49.56 2.02.19.2.42.26.24.06.53.06z" style="-inkscape-font-specification:Pattaya;text-align:center"/>
      <path d="M195.26 237.01q-.49 0-.92-.17-.44-.2-.77-.51-.32-.31-.5-.75t-.18-.92q0-.49.17-.93.2-.45.51-.77.33-.32.77-.51.43-.2.92-.2.48 0 .92.2.44.19.76.5.32.33.51.78.2.44.2.93 0 .48-.2.92-.19.42-.5.75-.33.32-.77.5t-.92.18zm-7.47 24.15q-1.42 0-2.36-.73-.48-.37-.74-.93-.27-.54-.27-1.26 0-1.68 1.61-2.9 1.19-.9 3.31-1.56l3.2-15.11h4.33l-2.97 13.9q1.42-.46 2.27-1.4.9-1 1.52-2.88h1.26q-.8 2.66-2.4 4.11-1.19 1.07-2.92 1.5l-.45 2.16q-.57 2.86-2.27 4.16-1.25.94-3.12.94zm-.69-2.34q.47 0 .95-.66.5-.65.78-2l.19-.87q-1.4.52-2.05 1.04-.9.67-.9 1.5 0 .4.26.66.29.33.77.33z" style="-inkscape-font-specification:Pattaya;text-align:center"/>
      <path d="M202.7 237.04q-.49 0-.93-.17-.44-.2-.76-.51t-.51-.75q-.18-.44-.18-.92 0-.49.18-.93.19-.44.51-.77.32-.34.76-.51.44-.2.93-.2.48 0 .92.2.44.17.77.5.34.34.52.78.19.44.19.93 0 .48-.2.92-.17.44-.5.75-.34.32-.78.5t-.92.18zm-2.04 16.8q-1.43 0-2.27-.85-.94-.94-.94-2.74 0-.85.24-1.96l2.03-9.62h4.32l-2.15 10.19q-.12.38-.12.97 0 .61.28.86.3.25.94.25.44 0 .85-.2.42-.2.77-.55.72-.72 1.09-1.9h1.26q-.8 2.27-2.02 3.62-1.03 1.1-2.32 1.58-.93.35-1.96.35z" style="-inkscape-font-specification:Pattaya;text-align:center"/>
      <path d="M216.53 253.84q-1.86 0-2.75-1.06-.78-.9-.78-2.32 0-.68.16-1.57.18-.9.52-2.3.33-1.43.5-2.28.17-.87.17-1.5 0-1.53-1.08-1.53-.76 0-1.4.8-.55.69-.95 1.96l-2.03 9.62h-4.32l3.18-15h4.32l-.33 1.56q.88-.98 1.9-1.38.74-.29 1.6-.29 1.53 0 2.4.8.94.86.94 2.58 0 1.04-.38 2.71-.1.49-.34 1.45-.42 1.63-.61 2.6-.12.6-.12.99 0 .6.27.94.27.32.93.32.9 0 1.51-.73.47-.56 1.01-1.92h1.26q-1.11 3.3-2.81 4.61-1.2.94-2.77.94z" style="-inkscape-font-specification:Pattaya;text-align:center"/>
      <path d="M226.66 231.17h.96l1.8 2.4 4.71-2.4h1.32l-6.36 5.67h-.63zm-1.49 22.67q-2.21 0-3.41-1.11-1.27-1.2-1.27-3.65 0-.92.19-2.05.17-1.13.54-2.26.4-1.25 1.04-2.38t1.49-2q1.96-1.98 4.83-1.98 1.83 0 2.67.87.64.7.64 2 0 1.27-.56 2.4-.55 1.1-1.53 1.97-.98.85-2.23 1.36-1.24.5-2.58.59-.07.76-.07 1.2 0 1.47.56 2.02.48.5 1.6.5 1.63 0 2.98-.88.57-.37 1.1-.86.53-.52 1.23-1.3h1.02q-1.42 2.41-3.26 3.83-2.27 1.73-4.98 1.73zm.06-7.67q.83-.06 1.62-.49.8-.42 1.41-1.11.61-.7.97-1.57.35-.88.35-1.78 0-.6-.18-.91-.16-.32-.57-.32-.54 0-1.1.52-.54.53-1.05 1.45-.47.87-.85 1.97t-.6 2.24z" style="-inkscape-font-specification:Pattaya;text-align:center"/>
      <path d="m237.65 231.74 4.6-.63-4.34 15.63h-2.55zm-1.86 22.1q-.49 0-.93-.18-.42-.19-.76-.52-.33-.33-.53-.77-.19-.45-.19-.93 0-.49.2-.91.19-.44.52-.76.72-.7 1.69-.7.48 0 .92.2.44.18.76.5t.5.76q.19.42.19.9 0 .49-.2.94-.17.44-.5.77-.31.32-.75.5-.44.2-.92.2z" style="-inkscape-font-specification:Pattaya;text-align:center"/>
    </g>
  </g>
</svg>
